Coordinates
version=1
nRows=11
nColumns=36
inDegrees=yes

Units are S.I. units (second, meters, Newtons, ...)
If the header above contains a line with 'inDegrees', this indicates whether rotational values are in degrees (yes) or radians (no).

endheader
time	pelvis_tilt	pelvis_list	pelvis_rotation	pelvis_tx	pelvis_ty	pelvis_tz	hip_flexion_r	hip_adduction_r	hip_rotation_r	knee_angle_r	knee_angle_r_beta	ankle_angle_r	subtalar_angle_r	mtp_angle_r	hip_flexion_l	hip_adduction_l	hip_rotation_l	knee_angle_l	knee_angle_l_beta	ankle_angle_l	subtalar_angle_l	mtp_angle_l	lumbar_extension	lumbar_bending	lumbar_rotation	arm_flex_r	arm_add_r	arm_rot_r	elbow_flex_r	pro_sup_r	arm_flex_l	arm_add_l	arm_rot_l	elbow_flex_l	pro_sup_l
      0.00000000	      9.73516659	     -0.45921584	      3.24414360	     -0.50477347	      0.57239838	     -0.70204803	     79.18560479	    -17.01427208	      6.60227024	    102.21287980	      1.78395129	     20.81758729	      5.61302109	     -5.20029821	     80.03739752	     -9.75017576	      6.91821143	    100.80562416	      1.75939005	     18.56434596	     -0.03185784	     -5.20029821	    -22.93315947	     -0.22488456	     -3.12736230	      0.31288413	     -1.82166067	    -12.52089401	    130.04422352	    103.79211223	      0.02504200	     -3.44968143	    -11.46170485	    136.50454919	    100.49888937
      0.01000000	      9.75988394	     -0.46892178	      3.25999214	     -0.50483728	      0.57247392	     -0.70209663	     79.14972628	    -17.03113437	      6.57239093	    102.18758439	      1.78350980	     20.70506521	      5.44964345	     -5.82539355	     80.01325789	     -9.73170465	      6.92649271	    100.79882073	      1.75927130	     18.53569057	     -0.07544324	     -5.82539355	    -22.96868543	     -0.20915513	     -3.16851683	      0.36567287	     -1.86332541	    -12.58735225	    129.80868159	    106.26281379	      0.01235810	     -3.40668638	    -11.63114303	    136.35930048	    102.06428217
      0.02000000	      9.77323512	     -0.48001140	      3.25636993	     -0.50486857	      0.57248912	     -0.70204883	     79.14287570	    -17.02349013	      6.55204867	    102.18724262	      1.78350384	     20.68310787	      5.43625511	     -6.31794962	     80.00249641	     -9.74767699	      6.93435033	    100.80358871	      1.75935452	     18.54848904	     -0.05339006	     -6.31794962	    -22.99737822	     -0.19962472	     -3.19793923	      0.39720692	     -1.85252335	    -12.51525735	    129.81531112	    105.94569454	     -0.02923132	     -3.41843137	    -11.64183158	    136.43178142	    101.68137931
      0.03000000	      9.79001571	     -0.46382128	      3.26767065	     -0.50493407	      0.57251057	     -0.70207821	     79.11846821	    -17.04404284	      6.57185009	    102.18574582	      1.78347771	     20.82209400	      5.60840752	     -6.42837339	     79.97776508	     -9.72767599	      6.92379827	    100.78701721	      1.75906529	     18.59693208	     -0.00076652	     -6.42837339	    -23.04608226	     -0.20971576	     -3.16263323	      0.38334660	     -1.89731272	    -12.49670283	    129.96046527	    104.88461753	      0.02176458	     -3.43612856	    -11.52203436	    136.52366114	    100.97692045
      0.04000000	      9.81840390	     -0.45136716	      3.28285496	     -0.50498909	      0.57260708	     -0.70224679	     79.08810405	    -17.08376101	      6.56345368	    102.16067482	      1.78304014	     20.56344305	      5.31151930	     -6.47347014	     79.94328323	     -9.68787438	      6.90277672	    100.78002705	      1.75894329	     18.38633249	     -0.18144064	     -6.47347014	    -23.11441701	     -0.19969343	     -3.12820394	      0.37057853	     -1.99400338	    -12.45774499	    130.08677635	    104.09878993	      0.05512387	     -3.41664840	    -11.37798908	    136.59400519	    100.37125514
      0.05000000	      9.85432532	     -0.41299979	      3.33130026	     -0.50505607	      0.57279018	     -0.70250173	     79.02740973	    -17.16510981	      6.58610318	    102.12988662	      1.78250279	     20.43385300	      5.14866143	     -6.50620542	     79.87351885	     -9.58402098	      6.86148779	    100.74561121	      1.75834262	     18.28589756	     -0.31627536	     -6.50620542	    -23.18598014	     -0.21333260	     -3.10785622	      0.40525697	     -2.07713250	    -12.43358441	    130.19438660	    103.54077871	      0.12147217	     -3.38158271	    -11.28287595	    136.62293083	     99.94583479
      0.06000000	      9.92391461	     -0.39151325	      3.32826276	     -0.50518348	      0.57298219	     -0.70265352	     78.96869175	    -17.20402704	      6.58014936	    102.11293231	      1.78220688	     20.29529103	      5.01345543	     -6.53574435	     79.78316797	     -9.57026092	      6.82307205	    100.73183682	      1.75810221	     18.14660125	     -0.42908285	     -6.53574435	    -23.32629387	     -0.19438115	     -3.11136469	      0.47664352	     -2.13891119	    -12.37915691	    130.21043591	    103.27176683	      0.18410291	     -3.39915383	    -11.19815535	    136.65800559	     99.65210545
      0.07000000	      9.96379730	     -0.35964736	      3.36767154	     -0.50523404	      0.57317344	     -0.70273188	     78.89045336	    -17.27657711	      6.61580084	    102.11505046	      1.78224385	     20.84463272	      5.56664347	     -6.76651102	     79.69409641	     -9.51899940	      6.79069134	    100.70184609	      1.75757878	     18.48525734	     -0.24244420	     -6.76651102	    -23.40578395	     -0.19120899	     -3.24395012	      0.58081480	     -2.12424473	    -12.46000182	    129.94931350	    106.30712342	      0.12216383	     -3.45569072	    -11.52918176	    136.36898757	    102.14855394
      0.08000000	      9.93489739	     -0.36941059	      3.37521718	     -0.50531133	      0.57324459	     -0.70280153	     78.89019121	    -17.28271163	      6.62062293	    102.07536985	      1.78155129	     20.89046124	      5.62282990	     -6.95886055	     79.71928978	     -9.51347857	      6.77580531	    100.68127209	      1.75721969	     18.49440641	     -0.22905293	     -6.95886055	    -23.42562945	     -0.16210746	     -3.30548624	      0.67858892	     -2.20533010	    -12.27217688	    129.94017688	    105.90625215	      0.08354425	     -3.45069044	    -11.52400665	    136.45120121	    101.72090333
      0.09000000	      9.82325911	     -0.36896082	      3.39177949	     -0.50539359	      0.57311266	     -0.70284016	     79.03101108	    -17.28427129	      6.62361246	    102.05548925	      1.78120431	     20.68335021	      5.33281534	     -6.99012489	     79.84501936	     -9.47679112	      6.77398103	    100.63527604	      1.75641691	     18.38695705	     -0.41973196	     -6.99012489	    -23.34472782	     -0.16202315	     -3.11093349	      0.55054464	     -2.24110866	    -12.30873143	    130.39690151	    102.94479119	      0.31558446	     -3.53245038	    -11.13878056	    136.45506897	     99.96760267
      0.10000000	      9.99315808	     -0.40994140	      3.46842843	     -0.50552817	      0.57357102	     -0.70304141	     78.74872351	    -17.36518664	      6.59018317	    102.04198265	      1.78096857	     21.17226554	      6.14021140	     -7.07420047	     79.65340475	     -9.41280634	      6.84529279	    100.63836071	      1.75647075	     18.52929933	     -0.12057675	     -7.07420047	    -23.66655973	     -0.04207226	     -3.34615193	      0.80966356	     -2.35484043	    -11.91125943	    130.37457394	    101.53520512	      0.19207270	     -3.54131997	    -11.22199113	    136.89651266	     98.47206379
